<svg width="36" height="36" viewBox="0 0 36 36" fill="none" xmlns="http://www.w3.org/2000/svg">
<g clip-path="url(#clip0_7_2)">
<path d="M11.0289 6.16261C5.84741 8.47568 2.2851 13.3756 2.2851 19.5507C2.2851 28.2291 9.32148 35.2657 18.0001 35.2657C26.6787 35.2657 33.7151 28.2291 33.7151 19.5507C33.7151 13.3775 30.1549 8.47884 24.9761 6.16472L11.0289 6.16261Z" fill="#F7222B"/>
<path d="M25.1961 9.1132C24.121 7.81566 23.304 7.11703 22.4712 6.7429L23.0302 6.82959C25.8574 6.31554 27.6933 3.74534 28.0605 0.734556C27.1059 2.20324 22.9935 1.10173 20.864 1.98295C18.7368 2.86313 18.0018 5.94106 18 5.94823C17.9983 5.94113 17.2633 2.86313 15.136 1.98288C13.0064 1.10166 8.89411 2.20317 7.93948 0.734486C8.30665 3.74527 10.1425 6.31547 12.9697 6.82952L13.5288 6.74283C12.696 7.11696 11.879 7.81573 10.8039 9.11313C9.38426 10.8266 7.18123 10.4349 7.18123 10.4349C7.18123 10.4349 9.82484 16.1384 15.308 13.6171C17.2114 12.7418 17.8532 11.2893 17.9939 9.98276L18.0064 9.98473C18.1475 11.2908 18.7896 12.7422 20.6921 13.6171C26.1752 16.1383 28.8188 10.4349 28.8188 10.4349C28.8188 10.4349 26.6158 10.8266 25.1961 9.1132Z" fill="#4BDD6B"/>
<path d="M31.8969 11.0007C30.4961 8.9183 28.5708 7.20169 26.2865 5.98809C27.6209 4.76965 28.5287 2.96135 28.7894 0.82336C28.8307 0.484102 28.6327 0.161227 28.3115 0.0443677C27.9902 -0.0724917 27.6311 0.0476724 27.4447 0.334266C27.1211 0.832149 25.5802 0.841712 24.3421 0.849305C23.0148 0.857462 21.6425 0.865969 20.5831 1.3043C19.8986 1.58752 19.2732 2.08688 18.7343 2.77137V1.86054C18.7343 1.45498 18.4055 1.1262 17.9999 1.1262C17.5944 1.1262 17.2656 1.45498 17.2656 1.86054V2.77088C16.7925 2.16788 16.1854 1.62239 15.4168 1.3043C14.3574 0.865969 12.985 0.857532 11.6577 0.849305C10.4196 0.841641 8.87878 0.832219 8.55513 0.334266C8.36887 0.047813 8.00964 -0.072562 7.68839 0.0443677C7.3672 0.161227 7.16913 0.484102 7.21047 0.82336C7.47126 2.96142 8.37914 4.76972 9.71346 5.98816C7.42992 7.20134 5.50525 8.91696 4.10456 10.9985C2.43379 13.4814 1.5506 16.4387 1.5506 19.5507C1.5506 23.9442 3.26172 28.0749 6.36869 31.1819C9.47566 34.2889 13.6065 36 18 36C22.3935 36 26.5242 34.2889 29.6312 31.1819C32.7383 28.0749 34.4493 23.9442 34.4493 19.5507C34.4494 16.4398 33.5668 13.4832 31.8969 11.0007ZM28.9413 9.71262C28.8593 9.69877 28.7748 9.69701 28.6902 9.71199C28.6724 9.71522 26.8953 10.013 25.7615 8.64464C25.2715 8.05324 24.8241 7.57561 24.4002 7.18903C24.5778 7.11633 24.7515 7.03561 24.9212 6.94709C26.4601 7.66652 27.8091 8.60238 28.9413 9.71262ZM8.99261 2.13933C9.76851 2.30632 10.6949 2.31202 11.6489 2.31792C12.835 2.32523 14.0615 2.33283 14.8555 2.6614C16.4418 3.31777 17.1427 5.59814 17.2658 6.04336V7.14677C17.2658 7.55234 17.5946 7.88112 18.0001 7.88112C18.4057 7.88112 18.7345 7.55234 18.7345 7.14677V6.04329C18.8582 5.59638 19.5595 3.31741 21.1448 2.6614C21.9388 2.33283 23.1652 2.32531 24.3513 2.31792C25.3053 2.31202 26.2318 2.30632 27.0077 2.13933C26.3282 4.25869 24.8147 5.75866 22.899 6.10699C22.8852 6.10952 22.872 6.11325 22.8586 6.11648C21.916 5.66845 20.9699 5.5883 19.7621 5.5883C19.3565 5.5883 19.0278 5.91708 19.0278 6.32264C19.0278 6.7282 19.3565 7.05698 19.7621 7.05698C21.6876 7.05698 22.6235 7.15908 24.6308 9.5817C25.5154 10.6494 26.6411 11.034 27.5216 11.1566C26.534 12.5036 24.3839 14.5063 20.9991 12.9499C19.6492 12.3292 18.888 11.305 18.7367 9.90584C18.7011 9.57614 18.4489 9.31113 18.1213 9.25938L18.1088 9.25741C17.9103 9.2262 17.7074 9.27745 17.5477 9.39966C17.3881 9.52193 17.2855 9.70418 17.264 9.90415C17.1131 11.3042 16.3519 12.3289 15.0014 12.9499C11.616 14.5066 9.46603 12.5031 8.47877 11.1566C9.35922 11.0339 10.4851 10.6492 11.3696 9.5817C13.377 7.15908 14.3128 7.05698 16.2383 7.05698C16.6439 7.05698 16.9727 6.7282 16.9727 6.32264C16.9727 5.91708 16.6439 5.5883 16.2383 5.5883C15.0305 5.5883 14.0844 5.66845 13.1418 6.11648C13.1284 6.11325 13.1152 6.10952 13.1014 6.10699C11.1854 5.75874 9.67197 4.25883 8.99261 2.13933ZM11.5999 7.18903C11.176 7.57561 10.7286 8.05331 10.2386 8.64464C9.11939 9.99534 7.37943 9.72345 7.30989 9.71192C7.22531 9.69687 7.14072 9.69856 7.05881 9.71248C8.19112 8.60231 9.54007 7.66652 11.0791 6.94709C11.2487 7.03575 11.4224 7.11626 11.5999 7.18903ZM18.0001 34.5314C9.73976 34.5314 3.01943 27.8111 3.01943 19.5507C3.01943 16.0041 4.24779 12.8081 6.45279 10.3465C6.43654 10.4799 6.45644 10.6175 6.51508 10.7438C6.54496 10.8082 7.26293 12.3349 8.72121 13.538C10.1118 14.6852 12.4365 15.7458 15.6149 14.2843C16.6664 13.8009 17.4689 13.1119 18.0001 12.2477C18.5313 13.1119 19.3338 13.8009 20.3853 14.2843C21.4924 14.7935 22.4958 14.9965 23.3924 14.9965C25.0697 14.9965 26.3727 14.2856 27.2789 13.538C28.7372 12.335 29.4552 10.8082 29.485 10.7439C29.5436 10.6175 29.5635 10.4799 29.5474 10.3467C31.7523 12.8084 32.9807 16.0044 32.9807 19.5507C32.9807 27.811 26.2604 34.5314 18.0001 34.5314Z" fill="#1E1E1E" stroke="#1E1E1E" stroke-width="0.2"/>
<path d="M11.2529 28.1559C9.30228 26.5655 7.97028 24.3368 7.50256 21.88C7.42669 21.4816 7.04215 21.2203 6.64383 21.296C6.24544 21.3718 5.98395 21.7563 6.05982 22.1547C6.59215 24.9503 8.10683 27.4859 10.3249 29.2942C10.4612 29.4052 10.6254 29.4594 10.7885 29.4594C11.0016 29.4594 11.213 29.3671 11.358 29.189C11.6143 28.8746 11.5672 28.4121 11.2529 28.1559Z" fill="#1E1E1E"/>
<path d="M6.57928 20.6111C6.98485 20.6111 7.31363 20.2823 7.31363 19.8768V19.8686C7.31363 19.4631 6.98485 19.1343 6.57928 19.1343C6.17372 19.1343 5.84494 19.4631 5.84494 19.8686V19.8768C5.84494 20.2823 6.17372 20.6111 6.57928 20.6111Z" fill="#1E1E1E"/>
</g>
<defs>
<clipPath id="clip0_7_2">
<rect width="36" height="36" fill="white"/>
</clipPath>
</defs>
</svg>
